<?xml version="1.0" encoding="iso-8859-1"?>
<!-- Generator: Adobe Illustrator 19.0.0, SVG Export Plug-In . SVG Version: 6.00 Build 0)  -->
<svg xmlns="http://www.w3.org/2000/svg" xmlns:xlink="http://www.w3.org/1999/xlink" version="1.1" id="Capa_1" x="0px" y="0px" viewBox="0 0 512.001 512.001" style="enable-background:new 0 0 512.001 512.001;" xml:space="preserve">
<path style="fill:#76C1B3;" d="M360.115,504.435H107.162c-9.007,0-16.308-7.301-16.308-16.308V23.874  c0-9.007,7.301-16.308,16.308-16.308h297.505c9.007,0,16.308,7.301,16.308,16.308v419.7  C420.976,477.187,393.728,504.435,360.115,504.435z"/>
<path style="fill:#52A397;" d="M420.977,384.476v59.093c0,33.614-27.25,60.864-60.864,60.864H107.162  c-9.007,0-16.308-7.301-16.308-16.308v-42.785h269.26C393.732,445.338,420.977,418.081,420.977,384.476z"/>
<rect x="138.508" y="49.75" style="fill:#F5C350;" width="235.195" height="206.255"/>
<circle style="fill:#52A397;" cx="201.423" cy="360.943" r="62.914"/>
<polygon style="fill:#F9CB70;" points="373.703,49.75 373.703,73.639 191.342,256 138.506,256 138.506,236.896 325.652,49.75 "/>
<polygon style="fill:#F5C350;" points="239.03,345.473 216.893,345.473 216.893,323.336 185.957,323.336 185.957,345.473   163.819,345.473 163.819,376.409 185.957,376.409 185.957,398.546 216.893,398.546 216.893,376.409 239.03,376.409 "/>
<circle style="fill:#E66480;" cx="351.249" cy="316.367" r="22.457"/>
<circle style="fill:#2389A2;" cx="315.813" cy="388.078" r="22.457"/>
<path d="M304.069,496.869H107.248c-4.821,0-8.743-3.922-8.743-8.743V337.375c0-4.178-3.387-7.565-7.565-7.565  c-4.178,0-7.565,3.387-7.565,7.565v150.752c0,13.164,10.71,23.874,23.874,23.874h196.821c4.178,0,7.565-3.387,7.565-7.565  C311.634,500.257,308.247,496.869,304.069,496.869z"/>
<path d="M404.753,0H107.248C94.084,0,83.374,10.71,83.374,23.874v285.458c0,4.178,3.387,7.565,7.565,7.565  c4.178,0,7.565-3.387,7.565-7.565V23.874c0-4.821,3.922-8.743,8.743-8.743h297.505c4.821,0,8.743,3.922,8.743,8.743v46.415h-8.534  c-4.178,0-7.565,3.387-7.565,7.565c0,4.178,3.387,7.565,7.565,7.565h8.534v12.276h-8.534c-4.178,0-7.565,3.387-7.565,7.565  s3.387,7.565,7.565,7.565h8.534v12.276h-8.534c-4.178,0-7.565,3.387-7.565,7.565c0,4.178,3.387,7.565,7.565,7.565h8.534v12.276  h-8.534c-4.178,0-7.565,3.387-7.565,7.565s3.387,7.565,7.565,7.565h8.534v12.276h-8.534c-4.178,0-7.565,3.387-7.565,7.565  s3.387,7.565,7.565,7.565h8.534v12.276h-8.534c-4.178,0-7.565,3.387-7.565,7.565s3.387,7.565,7.565,7.565h8.534v221.117  c0,29.387-23.908,53.295-53.295,53.295h-26.975c-4.178,0-7.565,3.387-7.565,7.565c0,4.178,3.387,7.565,7.565,7.565h26.975  c37.73,0,68.426-30.696,68.426-68.426V23.874C428.627,10.71,417.917,0,404.753,0z"/>
<path d="M373.79,160.44c4.178,0,7.565-3.387,7.565-7.565V49.751c0-4.178-3.387-7.565-7.565-7.565H138.593  c-4.178,0-7.565,3.387-7.565,7.565V256c0,4.178,3.387,7.565,7.565,7.565H373.79c4.178,0,7.565-3.387,7.565-7.565v-73.637  c0-4.178-3.387-7.565-7.565-7.565c-4.178,0-7.565,3.387-7.565,7.565v66.072H146.159V57.317h220.066v95.558  C366.225,157.053,369.612,160.44,373.79,160.44z"/>
<path d="M163.904,383.974h14.572v14.572c0,4.178,3.387,7.565,7.565,7.565h30.936c4.178,0,7.565-3.387,7.565-7.565v-14.572h14.572  c4.178,0,7.565-3.387,7.565-7.565v-30.936c0-4.178-3.387-7.565-7.565-7.565h-14.572v-14.572c0-4.178-3.387-7.565-7.565-7.565  h-30.936c-4.178,0-7.565,3.387-7.565,7.565v14.572h-14.572c-4.178,0-7.565,3.387-7.565,7.565v30.936  C156.339,380.587,159.726,383.974,163.904,383.974z M171.47,353.039h14.572c4.178,0,7.565-3.387,7.565-7.565v-14.572h15.805v14.572  c0,4.178,3.387,7.565,7.565,7.565h14.572v15.805h-14.572c-4.178,0-7.565,3.387-7.565,7.565v14.572h-15.805v-14.572  c0-4.178-3.387-7.565-7.565-7.565H171.47L171.47,353.039L171.47,353.039z"/>
<path d="M201.51,431.425c38.865,0,70.484-31.619,70.484-70.484s-31.619-70.484-70.484-70.484s-70.484,31.619-70.484,70.484  S162.644,431.425,201.51,431.425z M201.51,305.588c30.522,0,55.353,24.831,55.353,55.353s-24.831,55.353-55.353,55.353  s-55.353-24.831-55.353-55.353S170.987,305.588,201.51,305.588z"/>
<path d="M138.593,287.775h8.299c4.178,0,7.565-3.387,7.565-7.565c0-4.178-3.387-7.565-7.565-7.565h-8.299  c-4.178,0-7.565,3.387-7.565,7.565C131.028,284.388,134.415,287.775,138.593,287.775z"/>
<path d="M351.331,286.346c-16.555,0-30.023,13.469-30.023,30.023s13.469,30.023,30.023,30.023c16.554,0,30.023-13.469,30.023-30.023  S367.885,286.346,351.331,286.346z M351.331,331.26c-8.212,0-14.892-6.681-14.892-14.892s6.681-14.892,14.892-14.892  s14.892,6.681,14.892,14.892S359.542,331.26,351.331,331.26z"/>
<path d="M345.917,388.08c0-16.555-13.469-30.023-30.023-30.023c-16.554,0-30.023,13.469-30.023,30.023  c0,16.554,13.469,30.023,30.023,30.023C332.448,418.103,345.917,404.634,345.917,388.08z M315.893,402.972  c-8.212,0-14.892-6.681-14.892-14.892c0-8.212,6.681-14.892,14.892-14.892s14.892,6.681,14.892,14.892  C330.786,396.291,324.105,402.972,315.893,402.972z"/>
<path d="M125.196,450.55c-4.178,0-7.565,3.387-7.565,7.565v22.839c0,4.178,3.387,7.565,7.565,7.565c4.178,0,7.565-3.387,7.565-7.565  v-22.839C132.762,453.938,129.374,450.55,125.196,450.55z"/>
<path d="M139.327,458.116v22.839c0,4.178,3.387,7.565,7.565,7.565c4.178,0,7.565-3.387,7.565-7.565v-22.839  c0-4.178-3.387-7.565-7.565-7.565C142.714,450.55,139.327,453.938,139.327,458.116z"/>
<path d="M161.023,458.116v22.839c0,4.178,3.387,7.565,7.565,7.565s7.565-3.387,7.565-7.565v-22.839c0-4.178-3.387-7.565-7.565-7.565  S161.023,453.938,161.023,458.116z"/>
<g>
</g>
<g>
</g>
<g>
</g>
<g>
</g>
<g>
</g>
<g>
</g>
<g>
</g>
<g>
</g>
<g>
</g>
<g>
</g>
<g>
</g>
<g>
</g>
<g>
</g>
<g>
</g>
<g>
</g>
</svg>
